<?xml version="1.0" encoding="utf-8"?>
<!-- Generator: Adobe Illustrator 15.0.2, SVG Export Plug-In . SVG Version: 6.00 Build 0)  -->
<!DOCTYPE svg PUBLIC "-//W3C//DTD SVG 1.1//EN" "http://www.w3.org/Graphics/SVG/1.1/DTD/svg11.dtd">
<svg version="1.1" xmlns="http://www.w3.org/2000/svg" x="0px" y="0px" width="1024px" height="1024px" viewBox="0 0 1024 1024" enable-background="new 0 0 1024 1024" xml:space="preserve">
	<g>
		<path fill="#000000" d="M781.168,0C930.134,0,1024,93.866,1024,241.95v539.225C1024,930.133,930.134,1024,781.168,1024H241.946 C93.866,1024,0,930.133,0,781.175V241.95C0,93.866,93.866,0,241.946,0H781.168z"/>
		<polygon fill="#FFFFFF" points="258.314,830 765.686,830 512,537.429"/>
		<polygon fill="#FFFFFF" points="364.306,633 194,633 194,274 830,274 830,633 659.694,633 686.99,665 861,665 861,243 163,243 163,665 337.01,665"/>
	</g>
</svg>